<svg version="1.1" xmlns="http://www.w3.org/2000/svg" x="0" y="0" width="40" height="40" xml:space="preserve">
  <style>
    .st0{fill:#005ae1}
  </style>
	<path class="st0" d="M16.9 25.5a5.6 5.6 0 001.6-7.7L14 20.9c-1.3.8-3 .4-3.8-.9-.8-1.2-.5-2.8.7-3.7l4.2-2.8 2.7-1.8a5.4 5.4 0 001.4-7.6l-4.5 3.1-6.8 4.7C4.1 14.4 3 19.5 5.5 23.3s7.6 4.7 11.4 2.2M23 14.6a5.4 5.4 0 00-1.4 7.6l4.5-3.1c1.3-.8 3-.4 3.8.8.8 1.2.5 2.8-.7 3.7L25 26.4l-2.7 1.8a5.4 5.4 0 00-1.4 7.6l4.5-3.1 6.8-4.7a8.3 8.3 0 002.2-11.5A8.3 8.3 0 0023 14.6c.1 0 .1 0 0 0z"/>
</svg>