<svg xmlns="http://www.w3.org/2000/svg" width="40" height="40" style="enable-background:new 0 0 40 40" xml:space="preserve">
  <path fill="#305BA7" d="M19.8 11.7 12.2 17c-1 .7-1.3 2.2-.6 3.2.7 1 2.2 1.3 3.2.6l7.6-5.3a7 7 0 0 1 9.7 1.7 7 7 0 0 1-1.7 9.7L28 28.5c2 3.4 6.4 1.9 8.5-1.7a11.5 11.5 0 0 0-16.7-15.1z"/>
    <path fill="#305BA7" d="m20.2 28.3 7.6-5.3c1-.7 1.3-2.2.6-3.2-.7-1-2.2-1.3-3.2-.6l-7.6 5.3a7 7 0 0 1-9.7-1.7 7 7 0 0 1 1.7-9.7l2.4-1.7C10 8 5.6 9.5 3.5 13.1c-2.1 3.8-2 8.6.6 12.3a11.5 11.5 0 0 0 16.1 2.9z"/>
</svg>
