<svg xmlns="http://www.w3.org/2000/svg" width="16" height="16" style="enable-background:new 0 0 16 16" xml:space="preserve">
  <path fill="#305BA7" d="M7.9 4.8 5 6.8a1 1 0 0 0-.2 1.3c.2.4.8.5 1.2.2l3-2.1c1.2-.9 2.9-.6 3.8.7.9 1.2.6 2.9-.7 3.8l-.9.6c.8 1.3 2.5.8 3.3-.6.8-1.5.8-3.3-.2-4.8a4.5 4.5 0 0 0-6.4-1.1z"/>
    <path fill="#305BA7" d="m8.1 11.2 2.9-2c.4-.3.5-.8.2-1.3-.2-.4-.8-.5-1.2-.2L7 9.8c-1.2.9-2.9.6-3.8-.7-.8-1.2-.5-2.9.7-3.8l.9-.6c-.7-1.3-2.4-.8-3.2.6-.8 1.5-.8 3.3.2 4.8a4.4 4.4 0 0 0 6.3 1.1z"/>
</svg>
